<?xml version="1.0" encoding="UTF-8" standalone="no"?>
<svg
   xmlns:dc="http://purl.org/dc/elements/1.1/"
   xmlns:cc="http://creativecommons.org/ns#"
   xmlns:rdf="http://www.w3.org/1999/02/22-rdf-syntax-ns#"
   xmlns:svg="http://www.w3.org/2000/svg"
   xmlns="http://www.w3.org/2000/svg"
   id="svg4649"
   version="1.1"
   viewBox="0 0 2.804323 5.4460616"
   height="5.4460616mm"
   width="2.804323mm">
  <defs
     id="defs4643" />
  <metadata
     id="metadata4646">
    <rdf:RDF>
      <cc:Work
         rdf:about="">
        <dc:format>image/svg+xml</dc:format>
        <dc:type
           rdf:resource="http://purl.org/dc/dcmitype/StillImage" />
        <dc:title></dc:title>
      </cc:Work>
    </rdf:RDF>
  </metadata>
  <g
     transform="translate(49.783112,-269.33054)"
     id="layer1">
    <polyline
       id="polyline288"
       points="275.709,87.4074 275.709,70.8465"
       class="Stem"
       style="fill:none;stroke:#000000;stroke-width:0.64999998;stroke-linecap:round;stroke-linejoin:bevel"
       transform="matrix(0.26458333,0,0,0.26458333,-121.07536,250.67295)" />
    <path
       style="stroke-width:0.26458332"
       id="path308"
       d="m -48.620268,273.31933 c 0.165365,0 0.3048,0.043 0.418571,0.12919 0.106627,0.093 0.160073,0.21014 0.160073,0.3514 0,0.2377 -0.122238,0.45992 -0.366977,0.66662 -0.247915,0.20671 -0.513292,0.31006 -0.795602,0.31006 -0.165365,0 -0.305065,-0.0431 -0.418571,-0.1292 -0.106892,-0.093 -0.160338,-0.21015 -0.160338,-0.35139 0,-0.2377 0.12409,-0.45992 0.372005,-0.66662 0.2413,-0.20671 0.504825,-0.31006 0.790839,-0.31006"
       class="Note" />
    <path
       style="stroke-width:0.26458332"
       id="path394"
       d="m -47.490497,273.59838 c -0.05847,-0.0586 -0.08784,-0.12919 -0.08784,-0.21187 0,-0.0827 0.02937,-0.1533 0.08784,-0.21188 0.05847,-0.0585 0.129117,-0.0878 0.211931,-0.0878 0.08255,0 0.153194,0.0293 0.211667,0.0878 0.05874,0.0586 0.08811,0.12919 0.08811,0.21188 0,0.0827 -0.02937,0.1533 -0.08811,0.21187 -0.05847,0.0586 -0.129117,0.0879 -0.211667,0.0879 -0.08282,0 -0.153458,-0.0293 -0.211931,-0.0879"
       class="NoteDot" />
  </g>
</svg>
