<?xml version="1.0" encoding="UTF-8" standalone="no"?>
<svg
   xmlns:dc="http://purl.org/dc/elements/1.1/"
   xmlns:cc="http://creativecommons.org/ns#"
   xmlns:rdf="http://www.w3.org/1999/02/22-rdf-syntax-ns#"
   xmlns:svg="http://www.w3.org/2000/svg"
   xmlns="http://www.w3.org/2000/svg"
   id="svg4746"
   version="1.1"
   viewBox="0 0 2.840832 6.1075196"
   height="6.1075196mm"
   width="2.840832mm">
  <defs
     id="defs4740" />
  <metadata
     id="metadata4743">
    <rdf:RDF>
      <cc:Work
         rdf:about="">
        <dc:format>image/svg+xml</dc:format>
        <dc:type
           rdf:resource="http://purl.org/dc/dcmitype/StillImage" />
        <dc:title></dc:title>
      </cc:Work>
    </rdf:RDF>
  </metadata>
  <g
     transform="translate(-90.049822,-166.94624)"
     id="layer1">
    <polyline
       id="polyline284"
       points="377.1,87.4074 377.1,68.3465"
       class="Stem"
       style="fill:none;stroke:#000000;stroke-width:0.64999998;stroke-linecap:round;stroke-linejoin:bevel"
       transform="matrix(0.26458333,0,0,0.26458333,-8.0687895,148.95011)" />
    <path
       style="stroke-width:0.26458332"
       id="path304"
       d="m 91.212402,171.59649 c 0.165364,0 0.305064,0.043 0.41857,0.12919 0.106892,0.093 0.160338,0.21013 0.160338,0.3514 0,0.2377 -0.122238,0.45992 -0.366977,0.66661 -0.247915,0.20672 -0.513292,0.31007 -0.795867,0.31007 -0.165364,0 -0.3048,-0.0431 -0.418571,-0.1292 -0.106627,-0.093 -0.160073,-0.21016 -0.160073,-0.35139 0,-0.2377 0.12409,-0.45993 0.372005,-0.66662 0.2413,-0.20672 0.504825,-0.31006 0.790575,-0.31006"
       class="Note" />
    <path
       style="stroke-width:0.26458332"
       id="path378"
       d="m 91.619595,168.35637 v -1.32291 h 0.165365 c 0,0.19637 0.03784,0.39274 0.113506,0.58909 0.08281,0.2136 0.174096,0.39965 0.274109,0.55811 0.07223,0.11369 0.18071,0.28768 0.325437,0.52195 0.110331,0.17915 0.2032,0.36689 0.279135,0.56327 0.07567,0.19637 0.113507,0.39275 0.113507,0.58909 0,0.3583 -0.07408,0.72348 -0.221986,1.09556 -0.02434,0.0413 -0.05688,0.062 -0.09842,0.062 -0.0344,0 -0.06535,-0.0137 -0.09287,-0.0413 -0.02064,-0.0207 -0.03096,-0.0465 -0.03096,-0.0775 v -0.0258 c 0.148167,-0.34107 0.22225,-0.67868 0.22225,-1.01288 0,-0.17224 -0.05186,-0.35827 -0.155046,-0.55808 -0.103452,-0.20328 -0.208491,-0.36518 -0.315383,-0.48578 -0.12065,-0.14123 -0.258233,-0.29281 -0.413279,-0.45474 h -0.165365"
       class="Hook" />
    <path
       style="stroke-width:0.26458332"
       id="path390"
       d="m 92.342437,171.87554 c -0.05874,-0.0586 -0.08784,-0.12919 -0.08784,-0.21188 0,-0.0827 0.0291,-0.1533 0.08784,-0.21187 0.05847,-0.0586 0.129117,-0.0878 0.211931,-0.0878 0.08255,0 0.153194,0.0293 0.211667,0.0878 0.05874,0.0586 0.08784,0.12919 0.08784,0.21187 0,0.0827 -0.0291,0.1533 -0.08784,0.21188 -0.05847,0.0585 -0.129117,0.0878 -0.211667,0.0878 -0.08281,0 -0.153458,-0.0293 -0.211931,-0.0878"
       class="NoteDot" />
  </g>
</svg>
