<?xml version="1.0" encoding="UTF-8" standalone="no"?>
<svg
   xmlns:dc="http://purl.org/dc/elements/1.1/"
   xmlns:cc="http://creativecommons.org/ns#"
   xmlns:rdf="http://www.w3.org/1999/02/22-rdf-syntax-ns#"
   xmlns:svg="http://www.w3.org/2000/svg"
   xmlns="http://www.w3.org/2000/svg"
   id="svg4867"
   version="1.1"
   viewBox="0 0 2.8408339 7.0997071"
   height="7.0997071mm"
   width="2.8408339mm">
  <defs
     id="defs4861" />
  <metadata
     id="metadata4864">
    <rdf:RDF>
      <cc:Work
         rdf:about="">
        <dc:format>image/svg+xml</dc:format>
        <dc:type
           rdf:resource="http://purl.org/dc/dcmitype/StillImage" />
        <dc:title></dc:title>
      </cc:Work>
    </rdf:RDF>
  </metadata>
  <g
     transform="translate(-63.591489,-194.42038)"
     id="layer1">
    <polyline
       id="polyline280"
       points="511.823,87.4074 511.823,64.5965"
       class="Stem"
       style="fill:none;stroke:#000000;stroke-width:0.64999998;stroke-linecap:round;stroke-linejoin:bevel"
       transform="matrix(0.26458333,0,0,0.26458333,-70.172581,177.41644)" />
    <path
       style="stroke-width:0.26458332"
       id="path300"
       d="m 64.754068,200.06282 c 0.165365,0 0.305065,0.0431 0.418571,0.12919 0.106892,0.093 0.160338,0.21014 0.160338,0.3514 0,0.2377 -0.122238,0.45992 -0.366977,0.66662 -0.247915,0.20671 -0.513292,0.31006 -0.795867,0.31006 -0.165365,0 -0.3048,-0.0431 -0.418571,-0.1292 -0.106627,-0.093 -0.160073,-0.21015 -0.160073,-0.35139 0,-0.2377 0.12409,-0.45992 0.372004,-0.66662 0.241036,-0.20672 0.504825,-0.31006 0.790575,-0.31006"
       class="Note" />
    <path
       style="stroke-width:0.26458332"
       id="path374"
       d="m 65.326627,195.62898 v 0.0258 c 0,0.15158 0.02752,0.29456 0.08255,0.42891 0.06535,0.16881 0.124089,0.29112 0.175683,0.3669 0.08969,0.13436 0.179123,0.26183 0.268817,0.3824 0.113506,0.16537 0.19632,0.28424 0.247914,0.35658 0.01376,-0.0448 0.02064,-0.10334 0.02064,-0.17571 0,-0.15158 -0.04815,-0.3221 -0.144462,-0.5116 -0.100012,-0.19634 -0.194733,-0.34795 -0.284427,-0.45474 -0.123825,-0.15158 -0.246327,-0.29112 -0.366712,-0.41857 m 0,-1.12138 c 0,0.17568 0.0344,0.35139 0.103187,0.5271 0.06562,0.16537 0.151606,0.33073 0.258498,0.4961 l 0.299773,0.46508 c 0.103187,0.15502 0.189442,0.32039 0.258233,0.4961 0.06906,0.17914 0.103452,0.35311 0.103452,0.52191 0,0.14126 -0.0344,0.28596 -0.103452,0.4341 0.103452,0.21014 0.155046,0.40995 0.155046,0.59944 0,0.18259 -0.04313,0.3669 -0.129117,0.55293 0.106628,0.19981 0.160073,0.39963 0.160073,0.59947 0,0.3066 -0.07408,0.61494 -0.22225,0.92498 -0.02408,0.0448 -0.05662,0.0672 -0.09816,0.0672 -0.0344,0 -0.06535,-0.0138 -0.09287,-0.0414 -0.02064,-0.0276 -0.03096,-0.0551 -0.03096,-0.0827 0,0 0,-0.007 0,-0.0207 0.147902,-0.28249 0.221986,-0.56499 0.221986,-0.84748 0,-0.21707 -0.08255,-0.42892 -0.247915,-0.63564 -0.168804,-0.21016 -0.380736,-0.42029 -0.635529,-0.63045 v 0.54261 H 65.16126 v -3.96875 h 0.165365 m 0,2.27375 v 0.0258 c 0,0.13436 0.0291,0.27906 0.08784,0.43408 0.06191,0.15848 0.122237,0.28077 0.18071,0.36689 0.03784,0.0551 0.130969,0.18259 0.279135,0.38241 0.12409,0.16883 0.208492,0.28596 0.253207,0.35142 0.03096,-0.0965 0.04657,-0.19466 0.04657,-0.29457 0,-0.14814 -0.05001,-0.30834 -0.150019,-0.48058 -0.08943,-0.15849 -0.19103,-0.29629 -0.304801,-0.41342 -0.110331,-0.11713 -0.2413,-0.24116 -0.392641,-0.37208"
       class="Hook" />
    <path
       style="stroke-width:0.26458332"
       id="path386"
       d="m 65.884104,200.34187 c -0.05874,-0.0586 -0.08784,-0.12919 -0.08784,-0.21187 0,-0.0827 0.0291,-0.1533 0.08784,-0.21188 0.05847,-0.0585 0.129116,-0.0878 0.211666,-0.0878 0.08281,0 0.153459,0.0293 0.211932,0.0878 0.05874,0.0586 0.08784,0.12919 0.08784,0.21188 0,0.0827 -0.0291,0.1533 -0.08784,0.21187 -0.05847,0.0586 -0.129117,0.0879 -0.211932,0.0879 -0.08255,0 -0.153193,-0.0293 -0.211666,-0.0879"
       class="NoteDot" />
  </g>
</svg>
