<?xml version="1.0" encoding="UTF-8" standalone="no"?>
<svg
   xmlns:dc="http://purl.org/dc/elements/1.1/"
   xmlns:cc="http://creativecommons.org/ns#"
   xmlns:rdf="http://www.w3.org/1999/02/22-rdf-syntax-ns#"
   xmlns:svg="http://www.w3.org/2000/svg"
   xmlns="http://www.w3.org/2000/svg"
   id="svg4217"
   version="1.1"
   viewBox="0 0 2.84096 5.4460554"
   height="5.4460554mm"
   width="2.84096mm">
  <defs
     id="defs4211" />
  <metadata
     id="metadata4214">
    <rdf:RDF>
      <cc:Work
         rdf:about="">
        <dc:format>image/svg+xml</dc:format>
        <dc:type
           rdf:resource="http://purl.org/dc/dcmitype/StillImage" />
        <dc:title></dc:title>
      </cc:Work>
    </rdf:RDF>
  </metadata>
  <g
     transform="translate(128.42048,-95.461495)"
     id="layer1">
    <polyline
       style="fill:none;stroke:#000000;stroke-width:0.64999998;stroke-linecap:round;stroke-linejoin:bevel"
       transform="matrix(0.26458333,0,0,0.26458333,-145.86552,76.803906)"
       class="Stem"
       points="72.1918,87.4074 72.1918,70.8465"
       id="polyline4194" />
    <path
       style="stroke-width:0.26458332"
       class="Note"
       d="m -127.25777,99.450281 c 0.16536,0 0.30491,0.04305 0.41857,0.129196 0.10681,0.093 0.16021,0.210132 0.16021,0.351393 0,0.2377 -0.12229,0.45993 -0.3669,0.66662 -0.24805,0.20672 -0.51332,0.31006 -0.79582,0.31006 -0.16536,0 -0.3049,-0.0431 -0.41859,-0.12919 -0.10679,-0.093 -0.16018,-0.21016 -0.16018,-0.3514 0,-0.2377 0.12401,-0.459921 0.37206,-0.666614 0.24116,-0.206718 0.50471,-0.310065 0.79065,-0.310065"
       id="path4196" />
    <path
       style="stroke-width:0.26458332"
       class="Hook"
       d="m -126.85076,96.871626 v -1.322917 h 0.16536 c 0,0.196374 0.0379,0.392747 0.11369,0.589095 0.0827,0.213598 0.17397,0.399653 0.27387,0.558112 0.0724,0.113691 0.18087,0.287681 0.32557,0.521943 0.11026,0.17915 0.20326,0.366898 0.27906,0.563272 0.0758,0.196374 0.11369,0.392747 0.11369,0.589095 0,0.358298 -0.0741,0.723476 -0.22222,1.09556 -0.0241,0.04133 -0.0568,0.06199 -0.0982,0.06199 -0.0345,0 -0.0654,-0.01376 -0.093,-0.04133 -0.0207,-0.02066 -0.031,-0.04651 -0.031,-0.07752 v -0.02582 c 0.14814,-0.341075 0.2222,-0.678683 0.2222,-1.012878 0,-0.172244 -0.0517,-0.358273 -0.15502,-0.558086 -0.10335,-0.203279 -0.20844,-0.365178 -0.31523,-0.485775 -0.12057,-0.141235 -0.25839,-0.292814 -0.41341,-0.454739 h -0.16536"
       id="path4198" />
  </g>
</svg>
