<?xml version="1.0" encoding="UTF-8" standalone="no"?>
<svg
   xmlns:dc="http://purl.org/dc/elements/1.1/"
   xmlns:cc="http://creativecommons.org/ns#"
   xmlns:rdf="http://www.w3.org/1999/02/22-rdf-syntax-ns#"
   xmlns:svg="http://www.w3.org/2000/svg"
   xmlns="http://www.w3.org/2000/svg"
   id="svg4797"
   version="1.1"
   viewBox="0 0 2.8408301 6.1075196"
   height="6.1075196mm"
   width="2.8408301mm">
  <defs
     id="defs4791" />
  <metadata
     id="metadata4794">
    <rdf:RDF>
      <cc:Work
         rdf:about="">
        <dc:format>image/svg+xml</dc:format>
        <dc:type
           rdf:resource="http://purl.org/dc/dcmitype/StillImage" />
        <dc:title></dc:title>
      </cc:Work>
    </rdf:RDF>
  </metadata>
  <g
     transform="translate(-119.53197,-243.29743)"
     id="layer1">
    <polyline
       id="polyline282"
       points="440.781,87.4074 440.781,68.3465"
       class="Stem"
       style="fill:none;stroke:#000000;stroke-width:0.64999998;stroke-linecap:round;stroke-linejoin:bevel"
       transform="matrix(0.26458333,0,0,0.26458333,4.5644254,225.3013)" />
    <path
       style="stroke-width:0.26458332"
       id="path302"
       d="m 120.69454,247.94768 c 0.16537,0 0.30507,0.043 0.41858,0.12919 0.10689,0.093 0.16033,0.21013 0.16033,0.3514 0,0.2377 -0.12223,0.45992 -0.36697,0.66661 -0.24792,0.20672 -0.5133,0.31007 -0.79587,0.31007 -0.16537,0 -0.3048,-0.0431 -0.41857,-0.1292 -0.10663,-0.093 -0.16007,-0.21016 -0.16007,-0.35139 0,-0.2377 0.12408,-0.45993 0.372,-0.66662 0.2413,-0.20672 0.50482,-0.31006 0.79057,-0.31006"
       class="Note" />
    <path
       style="stroke-width:0.26458332"
       id="path376"
       d="m 121.2671,243.38465 c 0,0.17568 0.0378,0.35139 0.11351,0.5271 0.0725,0.17224 0.16192,0.33589 0.26882,0.49091 l 0.31009,0.45476 c 0.10318,0.14124 0.19288,0.30488 0.26855,0.49094 0.0759,0.17224 0.11377,0.34623 0.11377,0.52191 0,0.16193 -0.0413,0.33073 -0.12409,0.50644 0.10345,0.21014 0.15505,0.41513 0.15505,0.61495 0,0.31694 -0.0741,0.64079 -0.22199,0.97152 -0.0243,0.0413 -0.0569,0.062 -0.0984,0.062 -0.0344,0 -0.0654,-0.0138 -0.0929,-0.0413 -0.0206,-0.0207 -0.031,-0.0465 -0.031,-0.0775 0,0 0,-0.009 0,-0.0258 0.14817,-0.29284 0.22225,-0.58912 0.22225,-0.88884 0,-0.13436 -0.0259,-0.25839 -0.0775,-0.37209 -0.0622,-0.13435 -0.13785,-0.25836 -0.22754,-0.37205 -0.11377,-0.14814 -0.2032,-0.25493 -0.26856,-0.32039 -0.0897,-0.0896 -0.19314,-0.18777 -0.31009,-0.29456 v 0.39791 h -0.16536 v -2.64583 h 0.16536 m 0.81122,2.73367 c 0.0241,-0.0723 0.0362,-0.15502 0.0362,-0.24805 0,-0.12057 -0.0241,-0.24288 -0.0725,-0.36689 -0.0516,-0.12404 -0.12383,-0.24977 -0.21696,-0.37725 -0.086,-0.10678 -0.1741,-0.21187 -0.26353,-0.31522 -0.0688,-0.0758 -0.16721,-0.17571 -0.29448,-0.29972 0,0.14123 0.0291,0.29112 0.0878,0.44958 0.0619,0.14814 0.12568,0.27734 0.19103,0.38759 0.0759,0.11713 0.16881,0.24976 0.27914,0.3979 0.11033,0.14814 0.19473,0.27215 0.25321,0.37206"
       class="Hook" />
    <path
       style="stroke-width:0.26458332"
       id="path388"
       d="m 121.82458,248.22673 c -0.0587,-0.0586 -0.0878,-0.12919 -0.0878,-0.21188 0,-0.0827 0.0291,-0.1533 0.0878,-0.21187 0.0585,-0.0586 0.12912,-0.0879 0.21167,-0.0879 0.0828,0 0.15345,0.0293 0.21193,0.0879 0.0587,0.0586 0.0878,0.12919 0.0878,0.21187 0,0.0827 -0.0291,0.1533 -0.0878,0.21188 -0.0585,0.0585 -0.12912,0.0878 -0.21193,0.0878 -0.0825,0 -0.1532,-0.0293 -0.21167,-0.0878"
       class="NoteDot" />
  </g>
</svg>
