<?xml version="1.0" encoding="UTF-8" standalone="no"?>
<svg
   xmlns:dc="http://purl.org/dc/elements/1.1/"
   xmlns:cc="http://creativecommons.org/ns#"
   xmlns:rdf="http://www.w3.org/1999/02/22-rdf-syntax-ns#"
   xmlns:svg="http://www.w3.org/2000/svg"
   xmlns="http://www.w3.org/2000/svg"
   id="svg4915"
   version="1.1"
   viewBox="0 0 2.619905 1.4572721"
   height="1.4572721mm"
   width="2.619905mm">
  <defs
     id="defs4909" />
  <metadata
     id="metadata4912">
    <rdf:RDF>
      <cc:Work
         rdf:about="">
        <dc:format>image/svg+xml</dc:format>
        <dc:type
           rdf:resource="http://purl.org/dc/dcmitype/StillImage" />
        <dc:title></dc:title>
      </cc:Work>
    </rdf:RDF>
  </metadata>
  <g
     transform="translate(-75.041234,-62.682077)"
     id="layer1">
    <path
       style="stroke-width:0.26458332"
       id="path314"
       d="m 76.178153,62.816434 c -0.12409,0 -0.213519,0.04307 -0.268817,0.129196 -0.06191,0.08268 -0.09287,0.194654 -0.09287,0.335888 0,0.161925 0.04313,0.30144 0.129116,0.418571 0.08625,0.113692 0.180975,0.192934 0.284163,0.237728 0.09313,0.04479 0.191293,0.06718 0.294746,0.06718 0.120385,0 0.211666,-0.04307 0.273843,-0.129196 0.05847,-0.08612 0.08784,-0.198093 0.08784,-0.335888 0,-0.161925 -0.04313,-0.30144 -0.129381,-0.418598 -0.08599,-0.110225 -0.179123,-0.189468 -0.278871,-0.237702 -0.100013,-0.04479 -0.199761,-0.06718 -0.299773,-0.06718 m 0.175683,-0.134356 c 0.372004,0 0.682096,0.07234 0.930275,0.217038 0.251354,0.144701 0.377032,0.315225 0.377032,0.511598 0,0.210159 -0.129117,0.382403 -0.38735,0.516758 -0.258498,0.141261 -0.56515,0.211878 -0.919957,0.211878 -0.365125,0 -0.675216,-0.07234 -0.930275,-0.217037 -0.254793,-0.144701 -0.382323,-0.315225 -0.382323,-0.511599 0,-0.210158 0.130969,-0.382402 0.392642,-0.516757 0.258498,-0.141261 0.56515,-0.211879 0.919956,-0.211879"
       class="Note" />
  </g>
</svg>
