<?xml version="1.0" encoding="UTF-8" standalone="no"?>
<svg
   xmlns:dc="http://purl.org/dc/elements/1.1/"
   xmlns:cc="http://creativecommons.org/ns#"
   xmlns:rdf="http://www.w3.org/1999/02/22-rdf-syntax-ns#"
   xmlns:svg="http://www.w3.org/2000/svg"
   xmlns="http://www.w3.org/2000/svg"
   id="svg4439"
   version="1.1"
   viewBox="0 0 2.8408339 6.4382491"
   height="6.4382491mm"
   width="2.8408339mm">
  <defs
     id="defs4433" />
  <metadata
     id="metadata4436">
    <rdf:RDF>
      <cc:Work
         rdf:about="">
        <dc:format>image/svg+xml</dc:format>
        <dc:type
           rdf:resource="http://purl.org/dc/dcmitype/StillImage" />
        <dc:title></dc:title>
      </cc:Work>
    </rdf:RDF>
  </metadata>
  <g
     transform="translate(-31.085537,-231.03683)"
     id="layer1">
    <polyline
       id="polyline290"
       points="216.215,87.4074 216.215,67.0965"
       class="Stem"
       style="fill:none;stroke:#000000;stroke-width:0.64999998;stroke-linecap:round;stroke-linejoin:bevel"
       transform="matrix(0.26458333,0,0,0.26458333,-24.465586,213.37143)" />
    <path
       style="stroke-width:0.26458332"
       id="path310"
       d="m 32.248116,236.0178 c 0.165364,0 0.305064,0.043 0.418571,0.1292 0.106891,0.093 0.160337,0.21013 0.160337,0.35139 0,0.2377 -0.122502,0.45993 -0.366977,0.66662 -0.248179,0.20672 -0.513291,0.31007 -0.795866,0.31007 -0.165365,0 -0.3048,-0.0431 -0.418571,-0.1292 -0.106627,-0.093 -0.160073,-0.21016 -0.160073,-0.35139 0,-0.23771 0.123825,-0.45993 0.372004,-0.66662 0.241035,-0.20672 0.50456,-0.31007 0.790575,-0.31007"
       class="Note" />
    <path
       style="stroke-width:0.26458332"
       id="path380"
       d="m 32.820674,232.24543 v 0.0258 c 0,0.15158 0.02752,0.29456 0.08255,0.42892 0.06535,0.1688 0.12409,0.29112 0.175684,0.36689 0.08969,0.13436 0.179122,0.26184 0.268816,0.38241 0.113507,0.16536 0.196321,0.28424 0.247915,0.35658 0.01376,-0.0448 0.02064,-0.10335 0.02064,-0.17571 0,-0.15158 -0.04815,-0.32211 -0.144727,-0.5116 -0.09975,-0.19635 -0.194469,-0.34796 -0.284162,-0.45474 -0.12409,-0.15158 -0.246327,-0.29112 -0.366713,-0.41857 m 0,-1.12139 c 0,0.17569 0.0344,0.3514 0.103188,0.52711 0.06562,0.16536 0.151606,0.33073 0.258498,0.49609 l 0.299773,0.46508 c 0.103187,0.15502 0.189441,0.32039 0.258233,0.4961 0.06879,0.17915 0.103452,0.35311 0.103452,0.52192 0,0.14126 -0.03466,0.28596 -0.103452,0.4341 0.103452,0.21013 0.155046,0.40994 0.155046,0.59944 0,0.18259 -0.04313,0.3669 -0.129117,0.55292 0.106627,0.19982 0.160073,0.39963 0.160073,0.59947 0,0.3066 -0.07408,0.61494 -0.22225,0.92498 -0.02408,0.0448 -0.05662,0.0672 -0.09816,0.0672 -0.0344,0 -0.06535,-0.0138 -0.09287,-0.0414 -0.02064,-0.0276 -0.03096,-0.0551 -0.03096,-0.0827 0,0 0,-0.007 0,-0.0207 0.147902,-0.2825 0.221985,-0.56499 0.221985,-0.84749 0,-0.21706 -0.08255,-0.42892 -0.247914,-0.63563 -0.168805,-0.21016 -0.380736,-0.4203 -0.63553,-0.63045 v 0.5426 H 32.65531 v -3.96875 h 0.165364 m 0,2.27375 v 0.0259 c 0,0.13436 0.0291,0.27906 0.08784,0.43408 0.06191,0.15848 0.122238,0.28077 0.180711,0.3669 0.03784,0.0551 0.130968,0.18259 0.279135,0.3824 0.12409,0.16883 0.208492,0.28596 0.253206,0.35142 0.03096,-0.0965 0.04657,-0.19466 0.04657,-0.29456 0,-0.14814 -0.05001,-0.30835 -0.150018,-0.48059 -0.08943,-0.15849 -0.19103,-0.29628 -0.304801,-0.41341 -0.110331,-0.11713 -0.2413,-0.24117 -0.392642,-0.37209"
       class="Hook" />
  </g>
</svg>
