<?xml version="1.0" encoding="UTF-8" standalone="no"?>
<svg
   xmlns:dc="http://purl.org/dc/elements/1.1/"
   xmlns:cc="http://creativecommons.org/ns#"
   xmlns:rdf="http://www.w3.org/1999/02/22-rdf-syntax-ns#"
   xmlns:svg="http://www.w3.org/2000/svg"
   xmlns="http://www.w3.org/2000/svg"
   id="svg4309"
   version="1.1"
   viewBox="0 0 1.83965 5.4460616"
   height="5.4460616mm"
   width="1.83965mm">
  <defs
     id="defs4303" />
  <metadata
     id="metadata4306">
    <rdf:RDF>
      <cc:Work
         rdf:about="">
        <dc:format>image/svg+xml</dc:format>
        <dc:type
           rdf:resource="http://purl.org/dc/dcmitype/StillImage" />
        <dc:title></dc:title>
      </cc:Work>
    </rdf:RDF>
  </metadata>
  <g
     transform="translate(-117.76474,-186.93173)"
     id="layer1">
    <polyline
       id="polyline294"
       points="110.282,87.5785 110.282,70.8465"
       class="Stem"
       style="fill:none;stroke:#000000;stroke-width:0.64999998;stroke-linecap:round;stroke-linejoin:bevel"
       transform="matrix(0.26458333,0,0,0.26458333,90.337198,168.27414)" />
    <path
       style="stroke-width:0.26458332"
       id="path316"
       d="m 119.43396,191.30292 c 0,-0.0586 -0.0225,-0.10853 -0.0672,-0.14986 -0.0447,-0.0448 -0.0966,-0.0672 -0.15504,-0.0672 -0.10346,0 -0.31195,0.10335 -0.62521,0.31007 -0.32385,0.21013 -0.52203,0.35999 -0.59452,0.44958 -0.0378,0.0482 -0.0566,0.0982 -0.0566,0.14986 0,0.0586 0.0222,0.1085 0.0672,0.14986 0.0413,0.0448 0.0929,0.0672 0.15478,0.0672 0.10001,0 0.31009,-0.10335 0.6305,-0.31007 0.31697,-0.20669 0.5133,-0.35655 0.58923,-0.44958 0.0378,-0.0448 0.0569,-0.0947 0.0569,-0.14986 m -0.27385,-0.3824 c 0.29607,0 0.44424,0.12748 0.44424,0.3824 0,0.12404 -0.036,0.26871 -0.10848,0.43408 -0.0722,0.16192 -0.16881,0.28596 -0.28946,0.37208 -0.26511,0.17915 -0.59769,0.26871 -0.99721,0.26871 -0.29633,0 -0.4445,-0.12747 -0.4445,-0.3824 0,-0.11369 0.0362,-0.25667 0.10848,-0.42892 0.0691,-0.16536 0.16536,-0.29112 0.28945,-0.37724 0.26538,-0.17915 0.5977,-0.26871 0.99748,-0.26871"
       class="Note" />
  </g>
</svg>
