<?xml version="1.0" encoding="UTF-8" standalone="no"?>
<svg
   xmlns:dc="http://purl.org/dc/elements/1.1/"
   xmlns:cc="http://creativecommons.org/ns#"
   xmlns:rdf="http://www.w3.org/1999/02/22-rdf-syntax-ns#"
   xmlns:svg="http://www.w3.org/2000/svg"
   xmlns="http://www.w3.org/2000/svg"
   id="svg4391"
   version="1.1"
   viewBox="0 0 2.840831 5.4460545"
   height="5.4460545mm"
   width="2.840831mm">
  <defs
     id="defs4385" />
  <metadata
     id="metadata4388">
    <rdf:RDF>
      <cc:Work
         rdf:about="">
        <dc:format>image/svg+xml</dc:format>
        <dc:type
           rdf:resource="http://purl.org/dc/dcmitype/StillImage" />
        <dc:title></dc:title>
      </cc:Work>
    </rdf:RDF>
  </metadata>
  <g
     transform="translate(18.80732,-266.30674)"
     id="layer1">
    <path
       id="polyline292"
       d="m -17.151822,270.77569 v -4.38174"
       style="fill:none;stroke:#000000;stroke-width:0.17197916;stroke-linecap:round;stroke-linejoin:bevel" />
    <path
       style="stroke-width:0.26458332"
       id="path312"
       d="m -17.644741,270.29552 c 0.165364,0 0.305064,0.043 0.418571,0.1292 0.106891,0.093 0.160337,0.21013 0.160337,0.35139 0,0.2377 -0.122502,0.45992 -0.366977,0.66662 -0.248179,0.20672 -0.513292,0.31006 -0.795867,0.31006 -0.165364,0 -0.3048,-0.0431 -0.41857,-0.12919 -0.106892,-0.093 -0.160073,-0.21016 -0.160073,-0.3514 0,-0.2377 0.123825,-0.45992 0.372004,-0.66662 0.241035,-0.20671 0.50456,-0.31006 0.790575,-0.31006"
       class="Note" />
    <path
       style="stroke-width:0.26458332"
       id="path382"
       d="m -17.072447,266.39395 c 0,0.17568 0.0381,0.35139 0.11377,0.5271 0.0725,0.17224 0.161925,0.33589 0.268817,0.49091 l 0.310092,0.45476 c 0.103187,0.14124 0.192881,0.30488 0.268552,0.49094 0.07593,0.17224 0.113771,0.34623 0.113771,0.52191 0,0.16193 -0.04128,0.33073 -0.12409,0.50644 0.103452,0.21014 0.155046,0.41514 0.155046,0.61495 0,0.31694 -0.07408,0.64079 -0.22225,0.97152 -0.02408,0.0413 -0.05688,0.062 -0.09816,0.062 -0.0344,0 -0.06535,-0.0138 -0.09287,-0.0413 -0.02064,-0.0207 -0.03122,-0.0465 -0.03122,-0.0775 0,0 0,-0.009 0,-0.0258 0.148167,-0.29284 0.22225,-0.58912 0.22225,-0.88884 0,-0.13436 -0.02566,-0.25839 -0.07752,-0.37208 -0.06191,-0.13436 -0.137583,-0.25837 -0.227277,-0.37206 -0.113771,-0.14814 -0.2032,-0.25493 -0.268817,-0.32039 -0.08943,-0.0896 -0.192881,-0.18777 -0.310091,-0.29456 v 0.39791 h -0.165365 v -2.64583 h 0.165365 m 0.811477,2.73367 c 0.02408,-0.0723 0.03625,-0.15502 0.03625,-0.24805 0,-0.12057 -0.02434,-0.24288 -0.0725,-0.36689 -0.05159,-0.12404 -0.12409,-0.24977 -0.216959,-0.37725 -0.08625,-0.10678 -0.174095,-0.21187 -0.263525,-0.31522 -0.06906,-0.0758 -0.167216,-0.17571 -0.294745,-0.29972 0,0.14126 0.02937,0.29112 0.08811,0.44958 0.06191,0.14814 0.125677,0.27734 0.191029,0.38759 0.07594,0.11713 0.168804,0.24976 0.279135,0.3979 0.110332,0.14814 0.194734,0.27216 0.253207,0.37206"
       class="Hook" />
  </g>
</svg>
