<?xml version="1.0" encoding="UTF-8" standalone="no"?>
<svg
   xmlns:dc="http://purl.org/dc/elements/1.1/"
   xmlns:cc="http://creativecommons.org/ns#"
   xmlns:rdf="http://www.w3.org/1999/02/22-rdf-syntax-ns#"
   xmlns:svg="http://www.w3.org/2000/svg"
   xmlns="http://www.w3.org/2000/svg"
   id="svg4697"
   version="1.1"
   viewBox="0 0 2.8995681 5.4460416"
   height="5.4460416mm"
   width="2.8995681mm">
  <defs
     id="defs4691" />
  <metadata
     id="metadata4694">
    <rdf:RDF>
      <cc:Work
         rdf:about="">
        <dc:format>image/svg+xml</dc:format>
        <dc:type
           rdf:resource="http://purl.org/dc/dcmitype/StillImage" />
        <dc:title></dc:title>
      </cc:Work>
    </rdf:RDF>
  </metadata>
  <g
     transform="translate(-49.199024,-235.31269)"
     id="layer1">
    <polyline
       id="polyline286"
       points="330.913,87.5785 330.913,70.8465"
       class="Stem"
       style="fill:none;stroke:#000000;stroke-width:0.64999998;stroke-linecap:round;stroke-linejoin:bevel"
       transform="matrix(0.26458333,0,0,0.26458333,-36.604027,216.6551)" />
    <path
       style="stroke-width:0.26458332"
       id="path306"
       d="m 50.868017,239.68387 c 0,-0.0586 -0.02222,-0.10853 -0.0672,-0.14986 -0.04471,-0.0448 -0.09631,-0.0672 -0.155046,-0.0672 -0.103188,0 -0.311679,0.10334 -0.625211,0.31006 -0.32385,0.21013 -0.522022,0.35999 -0.594254,0.44958 -0.03784,0.0482 -0.05689,0.0982 -0.05689,0.14986 0,0.0585 0.02249,0.10851 0.0672,0.14986 0.04127,0.0448 0.09313,0.0672 0.155046,0.0672 0.100012,0 0.310092,-0.10335 0.630502,-0.31007 0.316971,-0.20669 0.513292,-0.35655 0.588962,-0.44958 0.0381,-0.0448 0.05689,-0.0947 0.05689,-0.14986 m -0.273844,-0.3824 c 0.296333,0 0.4445,0.12748 0.4445,0.3824 0,0.12404 -0.03625,0.26871 -0.108479,0.43408 -0.0725,0.16192 -0.169069,0.28596 -0.289454,0.37208 -0.265378,0.17915 -0.597694,0.26871 -0.99748,0.26871 -0.296333,0 -0.444235,-0.12747 -0.444235,-0.3824 0,-0.11369 0.03598,-0.25667 0.108479,-0.42891 0.06879,-0.16537 0.165365,-0.29113 0.28919,-0.37725 0.265377,-0.17915 0.597958,-0.26871 0.997479,-0.26871"
       class="Note" />
    <path
       style="stroke-width:0.26458332"
       id="path392"
       d="m 51.58689,239.58053 c -0.05847,-0.0586 -0.08784,-0.1292 -0.08784,-0.21188 0,-0.0827 0.02937,-0.1533 0.08784,-0.21188 0.05874,-0.0585 0.129381,-0.0878 0.211931,-0.0878 0.08282,0 0.153458,0.0293 0.211931,0.0878 0.05847,0.0586 0.08784,0.1292 0.08784,0.21188 0,0.0827 -0.02937,0.1533 -0.08784,0.21188 -0.05847,0.0585 -0.129117,0.0878 -0.211931,0.0878 -0.08255,0 -0.153194,-0.0293 -0.211931,-0.0878"
       class="NoteDot" />
  </g>
</svg>
